<svg width="500" height="500" viewBox="0 0 500 500" fill="none" xmlns="http://www.w3.org/2000/svg">
<path d="M187 76.5C221.1 76.5 255.1 76.5 289.2 76.5C290 76.6 290.9 76.8 291.7 76.8C317.1 77.3 342.4 78.6 367.4 83.3C381.4 85.9 395.1 89.8 407.9 96.4C424.4 104.9 436.4 117.5 442.3 135.4C447.5 151 449 167.1 449.1 183.4C449.1 183.6 449 183.8 448.9 184C420.7 184 392.4 184 364.1 184C364 182.3 363.8 180.7 363.7 179C362.9 169.4 358.5 162.3 349.1 159C344.6 157.4 339.9 156.2 335.2 155.3C323.4 153.2 311.4 152.7 299.5 152.6C261.6 152.5 223.7 152.6 185.8 152.9C176.6 153 167.5 154.1 158.6 156.4C146.5 159.5 136.6 165.6 130.7 177.1C124.7 188.7 123.6 201.4 122.5 214.4C158.7 214.4 194.6 214.4 231.2 214.4C229.8 215.3 229 215.8 228.1 216.3C193.4 238 158.6 259.7 123.8 281.4C122.4 282.3 121.8 283.2 122 284.8C123 293.2 123.5 301.6 124.9 309.9C126.5 319.6 130.7 328.1 138.6 334.4C144.5 339.1 151.4 341.8 158.6 343.4C172.2 346.5 186 347.2 199.9 347.3C225.7 347.4 251.5 347.4 277.3 347.3C294.9 347.2 312.6 346.9 330 344.1C337.2 342.9 344.4 341.2 350.8 337.5C355.7 334.7 359.6 330.9 361.4 325.4C362.6 321.8 363.7 318 363.8 314.2C364.2 304.3 364.2 294.4 364.3 284.5C364.3 283.8 364.3 283.1 364.3 282.2C326.5 282.2 289 282.2 250.9 282.2C251.8 281.6 252.3 281.2 252.8 280.9C288 258.9 323.2 236.9 358.4 215C359.3 214.4 360.5 214.1 361.5 214.1C390.2 214.1 418.8 214.1 447.5 214.1C448.1 214.1 448.8 214.2 449.5 214.2C449.5 215.1 449.5 215.9 449.5 216.7C449.4 235 449.1 253.2 449.1 271.5C449.1 287.2 449 302.9 447.5 318.6C446.3 331.7 444.3 344.7 440.3 357.2C433.9 377.2 421.9 392.8 403.2 402.9C391.7 409.1 379.3 412.9 366.4 415.3C344.4 419.4 322.2 421 299.8 421.2C270 421.5 240.2 421.4 210.5 421.5C189.5 421.5 168.5 421.4 147.6 419.3C134.2 417.9 120.9 416 107.9 412.1C95.1998 408.3 83.3998 402.8 73.0998 394.2C59.5998 382.9 51.4998 368.1 46.7998 351.4C42.8998 337.5 41.0998 323.2 40.0998 308.9C39.7998 305 39.5998 301.1 39.2998 297.3C39.2998 269.7 39.2998 242.1 39.2998 214.5C39.3998 213.9 39.5998 213.2 39.5998 212.6C40.3998 201.2 40.9998 189.8 42.1998 178.5C43.4998 166.3 45.6998 154.2 49.6998 142.6C56.7998 122 69.1998 105.7 88.4998 95C102.1 87.5 116.8 83.6 132 81.1C149.2 78.3 166.4 77 183.8 76.6C185 76.8 186 76.6 187 76.5Z" fill="url(#paint0_linear)"/>
<path d="M114.5 278.5C115.4 274.9 116.4 271.3 117.2 267.6C117.5 266.3 118.1 265.6 119.3 265C140 255.1 160.8 245.4 181.3 235.1C206.8 222.3 232.1 209 257.4 195.9C260.9 194.1 264.4 192.3 268 190.5C268.5 190.2 269.1 190 269.9 190.1C220 221.4 170.1 252.7 120.1 284.1C118.2 282.5 116.4 280.9 114.5 279.4C114.5 279.1 114.5 278.8 114.5 278.5Z" fill="url(#paint1_linear)"/>
<path d="M202.9 313.5C255 280.5 307.1 247.5 359.3 214.4C361.9 217.5 364.5 220.4 366.9 223.6C367.6 224.5 367.5 226.1 367.6 227.4C367.8 229.4 368.6 231.7 367.7 233.2C366.9 234.6 364.4 235.2 362.6 236C310.1 261.6 257.6 287.3 205.2 312.9C204.5 313.2 203.8 313.5 203.1 313.8C203 313.7 203 313.6 202.9 313.5Z" fill="url(#paint2_linear)"/>
<defs>
<linearGradient id="paint0_linear" x1="244.631" y1="417.265" x2="244.631" y2="75.3047" gradientUnits="userSpaceOnUse">
<stop stop-color="#009C8B"/>
<stop offset="0.5" stop-color="#3F2D87"/>
<stop offset="1" stop-color="#AA2B87"/>
</linearGradient>
<linearGradient id="paint1_linear" x1="192.147" y1="417.265" x2="192.147" y2="75.3047" gradientUnits="userSpaceOnUse">
<stop stop-color="#009C8B"/>
<stop offset="0.5" stop-color="#3F2D87"/>
<stop offset="1" stop-color="#AA2B87"/>
</linearGradient>
<linearGradient id="paint2_linear" x1="285.49" y1="417.265" x2="285.49" y2="75.3046" gradientUnits="userSpaceOnUse">
<stop stop-color="#009C8B"/>
<stop offset="0.5" stop-color="#3F2D87"/>
<stop offset="1" stop-color="#AA2B87"/>
</linearGradient>
</defs>
</svg>
