<svg width="190" height="190" viewBox="0 0 201 201" fill="none" xmlns="http://www.w3.org/2000/svg">
<path d="M92.4341 200.81C59.921 197.56 30.4455 180.415 14.5542 155.51C8.07095 145.35 3.06195 132.519 1.48531 122.033C0.778247 117.331 0.295962 106.374 0.519245 100.086C1.32713 77.3326 6.62621 59.6862 17.3442 44.0571C21.0969 38.5849 23.5482 35.7152 28.8252 30.6163C37.2592 22.4669 45.7419 16.7121 57.7636 10.984C68.4903 5.87289 77.207 3.20752 88.5473 1.57109C94.3282 0.736894 107.526 0.819118 113.545 1.72659C132.76 4.62408 149.67 12.8681 165.801 27.2027C183.019 42.5038 194.434 60.3742 198.601 78.5485C200.166 85.3759 200.446 88.0693 200.463 96.4611C200.482 104.968 200.263 107.303 198.74 114.9L197.768 119.747L194.153 120.45C184.273 122.37 171.62 125.808 163.641 128.74C157.484 131.002 156.234 131.514 147.316 135.422C138.763 139.17 134.887 140.652 130.251 141.947C120.562 144.651 110.219 144.881 103.231 142.545C93.8259 139.402 86.7918 131.89 85.2615 123.354C84.7476 120.487 85.0553 114.901 85.8928 111.899C87.9077 104.674 92.3622 97.2314 99.2643 89.5575C100.541 88.1379 101.613 87.0037 101.646 87.0371C101.679 87.0688 102.092 90.156 102.563 93.8937C103.034 97.6315 103.442 100.723 103.47 100.763C103.498 100.804 104.698 100.419 106.137 99.9093C114.564 96.9216 123.251 96.3726 132.086 98.2692C136.409 99.197 144.38 101.719 152.136 104.612C155.129 105.728 158.487 106.829 159.599 107.058C164.897 108.151 173.553 107.072 179.071 104.634C180.575 103.969 180.688 103.839 181.089 102.31C181.632 100.238 181.638 94.3474 181.098 91.7391L180.684 89.7355L174.571 85.6557C137.751 61.0808 106.86 46.5196 80.606 41.3623C73.4662 39.9598 61.0266 38.7567 61.0266 39.4686C61.0266 39.6394 60.9517 39.9685 60.86 40.2002C60.7395 40.5057 64.3263 42.3593 73.9129 46.9453C81.1835 50.4234 87.1348 53.3371 87.1379 53.4202C87.1414 53.5033 84.5904 54.4347 81.47 55.49C72.5793 58.4968 66.6202 60.8731 60.5578 63.8289C55.5431 66.2739 48.2857 70.4948 48.2799 70.9697C48.2786 71.07 50.9939 71.3996 54.3138 71.7027L60.35 72.2537L57.0314 75.7492C52.5572 80.462 49.9665 83.4795 43.6575 91.3264L38.3149 97.9713L42.9853 98.0545C45.554 98.1001 47.6528 98.2362 47.6491 98.3565C47.6455 98.4767 45.4891 105.711 42.857 114.432C40.225 123.154 38.098 130.316 38.1304 130.348C38.1629 130.38 40.4076 129.926 43.1187 129.337C46.3263 128.641 48.1172 128.376 48.2458 128.578C48.3547 128.749 48.9144 135.796 49.4899 144.238C50.0654 152.68 50.5813 159.638 50.6363 159.699C50.6912 159.761 52.6453 158.232 54.9788 156.301C57.3122 154.371 59.3127 152.793 59.4243 152.794C59.5359 152.795 63.4052 158.497 68.0227 165.465C72.6403 172.432 76.5191 178.139 76.6423 178.148C76.7656 178.157 78.5707 176.184 80.6538 173.764C83.6844 170.244 84.5149 169.445 84.8102 169.762C85.0131 169.981 86.5636 171.858 88.2557 173.934C89.9477 176.011 92.9439 179.291 94.9138 181.224L98.4955 184.739L106.114 184.744C117.951 184.753 125.456 185.981 135.425 189.542L138.462 190.627L137.447 191.368C131.454 195.745 123.857 198.642 114.198 200.234C111.154 200.735 108.66 200.896 102.693 200.974C98.5033 201.03 93.8857 200.956 92.4321 200.81L92.4341 200.81Z" fill="#52C4C4"/>
</svg>
